<?xml version="1.0" encoding="UTF-8" standalone="no"?>
<!DOCTYPE svg PUBLIC "-//W3C//DTD SVG 1.1//EN" "http://www.w3.org/Graphics/SVG/1.1/DTD/svg11.dtd">
<svg width="100%" height="100%" viewBox="0 0 320 64" version="1.1" xmlns="http://www.w3.org/2000/svg" xmlns:xlink="http://www.w3.org/1999/xlink" xml:space="preserve" xmlns:serif="http://www.serif.com/" style="fill-rule:evenodd;clip-rule:evenodd;">
    <g transform="matrix(0.0372961,-7.70372e-34,-1.54074e-33,0.0334071,17.4113,26.9107)">
        <path d="M144.682,380.216C-50.626,579.755 139.33,725.084 293.751,629.814C294.592,678.96 256.059,724.842 232.358,768.713L399.086,768.713C374.677,726.074 333.917,679.104 332.427,629.814C490.086,720.384 657.754,562.445 482.816,380.216C391.596,280.137 334.577,202.267 313.087,175.798C293.485,201.606 241.267,277.497 144.678,380.216L144.682,380.216Z" style="stroke:black;stroke-width:1.37px;"/>
    </g>
    <g transform="matrix(2.43707,0,0,1.75354,-139.417,4.8767)">
        <g transform="matrix(1.29421,-7.60752e-48,-3.93857e-48,1.29421,-55.8304,-6.94939)">
            <path d="M93.028,23.819L91.308,29.03L88.693,29.03L96.652,5.269L104.331,29.03L101.674,29.03L99.986,23.6L99.966,23.6L98.985,20.429L98.996,20.429L96.611,12.827L94.817,18.279L94.81,18.279L94.276,19.924L94.11,20.429L94.112,20.429L93.012,23.819L93.028,23.819Z"/>
        </g>
        <g transform="matrix(1.29421,-7.60752e-48,-3.93857e-48,1.29421,-55.8304,-6.94939)">
            <path d="M116.839,7.875L116.839,11.872C115.436,10.24 113.984,9.425 112.484,9.425C110.831,9.425 109.438,10.25 108.306,11.901C107.167,13.542 106.597,15.549 106.597,17.924C106.597,20.27 107.167,22.249 108.306,23.861C109.445,25.473 110.841,26.279 112.494,26.279C113.349,26.279 114.074,26.086 114.672,25.7C115.005,25.507 115.351,25.246 115.708,24.918C116.066,24.59 116.443,24.194 116.839,23.73L116.839,27.799C115.45,28.89 113.991,29.435 112.463,29.435C110.164,29.435 108.202,28.32 106.577,26.091C104.958,23.841 104.149,21.129 104.149,17.953C104.149,15.105 104.826,12.567 106.181,10.337C107.848,7.605 110.004,6.239 112.651,6.239C114.095,6.239 115.491,6.784 116.839,7.875Z" style="fill-rule:nonzero;"/>
        </g>
        <g transform="matrix(1.29421,-7.60752e-48,-3.93857e-48,1.29421,-55.8304,-6.94939)">
            <path d="M128.138,9.844L121.689,9.844L121.689,15.216L127.951,15.216L127.951,18.387L121.689,18.387L121.689,25.859L128.138,25.859L128.138,29.03L119.262,29.03L119.262,6.673L128.138,6.673L128.138,9.844Z" style="fill-rule:nonzero;"/>
        </g>
        <g transform="matrix(1.29421,-7.60752e-48,-3.93857e-48,1.29421,-55.8304,-6.94939)">
            <path d="M130.686,29.03L130.686,6.673L133.103,6.673C134.18,6.673 135.038,6.789 135.677,7.021C136.323,7.253 136.868,7.644 137.312,8.194C137.764,8.763 138.122,9.473 138.385,10.322C138.656,11.181 138.792,12.05 138.792,12.929C138.792,14.531 138.351,15.887 137.469,16.997C138.323,17.403 138.997,18.112 139.49,19.126C139.99,20.13 140.24,21.298 140.24,22.63C140.24,24.377 139.795,25.854 138.906,27.061C138.372,27.804 137.771,28.32 137.104,28.61C136.375,28.89 135.461,29.03 134.364,29.03L130.686,29.03ZM133.114,16.273L133.874,16.273C134.777,16.273 135.439,15.996 135.859,15.441C136.279,14.886 136.489,14.068 136.489,12.986C136.489,11.934 136.274,11.136 135.843,10.59C135.413,10.045 134.788,9.772 133.968,9.772L133.114,9.772L133.114,16.273ZM133.114,25.859L134.614,25.859C135.711,25.859 136.517,25.56 137.031,24.961C137.573,24.314 137.844,23.494 137.844,22.5C137.844,21.534 137.583,20.723 137.062,20.067C136.555,19.42 135.649,19.097 134.343,19.097L133.114,19.097L133.114,25.859Z" style="fill-rule:nonzero;"/>
        </g>
        <g transform="matrix(1.16771,-6.86388e-48,-3.894e-48,1.27957,-37.8995,-6.70253)">
            <path d="M141.736,17.75C141.736,14.603 142.566,11.901 144.226,9.642C145.879,7.383 147.865,6.253 150.185,6.253C152.477,6.253 154.443,7.393 156.082,9.671C157.728,11.949 158.551,14.685 158.551,17.881C158.551,21.095 157.725,23.822 156.072,26.062C154.412,28.311 152.408,29.435 150.06,29.435C147.983,29.435 146.118,28.436 144.465,26.438C142.646,24.228 141.736,21.332 141.736,17.75ZM144.184,17.794C144.184,20.265 144.781,22.297 145.976,23.89C147.164,25.482 148.535,26.279 150.091,26.279C151.779,26.279 153.203,25.468 154.363,23.846C155.523,22.205 156.103,20.207 156.103,17.852C156.103,15.467 155.53,13.469 154.384,11.857C153.245,10.235 151.835,9.425 150.154,9.425C148.48,9.425 147.066,10.235 145.913,11.857C144.761,13.459 144.184,15.438 144.184,17.794Z" style="fill-rule:nonzero;stroke:black;stroke-width:0.23px;stroke-linejoin:round;stroke-miterlimit:2;"/>
        </g>
        <g transform="matrix(1.16771,-6.86388e-48,-3.894e-48,1.27957,-37.8475,-6.70253)">
            <path d="M160.161,17.75C160.161,14.603 160.991,11.901 162.651,9.642C164.305,7.383 166.291,6.253 168.611,6.253C170.903,6.253 172.869,7.393 174.508,9.671C176.154,11.949 176.977,14.685 176.977,17.881C176.977,21.095 176.15,23.822 174.497,26.062C172.837,28.311 170.833,29.435 168.486,29.435C166.409,29.435 164.544,28.436 162.891,26.438C161.071,24.228 160.161,21.332 160.161,17.75ZM162.61,17.794C162.61,20.265 163.207,22.297 164.402,23.89C165.589,25.482 166.961,26.279 168.517,26.279C170.205,26.279 171.629,25.468 172.789,23.846C173.949,22.205 174.529,20.207 174.529,17.852C174.529,15.467 173.956,13.469 172.809,11.857C171.67,10.235 170.26,9.425 168.58,9.425C166.906,9.425 165.492,10.235 164.339,11.857C163.186,13.459 162.61,15.438 162.61,17.794Z" style="fill-rule:nonzero;stroke:black;stroke-width:0.23px;stroke-linejoin:round;stroke-miterlimit:2;"/>
        </g>
        <g transform="matrix(1.29421,-7.60752e-48,-3.93857e-48,1.29421,-60.6099,-6.94939)">
            <path d="M181.817,15.593L188.078,6.673L191.319,6.673L184.046,16.795L191.36,29.03L188.11,29.03L182.317,19.082L181.817,19.777L181.817,29.03L179.389,29.03L179.389,6.673L181.817,6.673L181.817,15.593Z" style="fill-rule:nonzero;"/>
        </g>
    </g>
</svg>
